<svg xmlns="http://www.w3.org/2000/svg" width="620" height="384" viewBox="0 0 620 384" role="img" aria-labelledby="title description">
  <title id="title">Agent Context Economy benchmark</title>
  <desc id="description">Measured reductions in terminal output, source reading, and shell commands.</desc>
  <rect width="620" height="384" rx="16" fill="#0d1117"/>
  <rect x="1" y="1" width="618" height="382" rx="16" fill="#161b22" stroke="#30363d"/>
  <g font-family="Segoe UI, Arial, sans-serif">
    <text x="32" y="40" fill="#f0f6fc" font-size="18" font-weight="700">Agent Context Economy</text>
    <text x="32" y="62" fill="#8b949e" font-size="13">Benchmark Results</text>
    <text x="32" y="80" fill="#8b949e" font-size="11">Generated 2026-07-07 UTC - higher is better</text>
    <line x1="32" y1="96" x2="588" y2="96" stroke="#30363d"/>
    <text x="32" y="138" fill="#c9d1d9" font-size="13" font-weight="600">Terminal output</text>
    <text x="32" y="171" fill="#8b949e" font-size="11">354 lines -&gt; 33 lines</text>
    <rect x="200" y="146" width="338" height="22" rx="6" fill="#21262d"/>
    <rect x="200" y="146" width="308" height="22" rx="6" fill="#3fb950"/>
    <text x="548" y="162" fill="#3fb950" font-size="14" font-weight="700">91%</text>
    <text x="32" y="210" fill="#c9d1d9" font-size="13" font-weight="600">Source reading</text>
    <text x="32" y="243" fill="#8b949e" font-size="11">509 lines -&gt; 40 lines</text>
    <rect x="200" y="218" width="338" height="22" rx="6" fill="#21262d"/>
    <rect x="200" y="218" width="311" height="22" rx="6" fill="#58a6ff"/>
    <text x="548" y="234" fill="#58a6ff" font-size="14" font-weight="700">92%</text>
    <text x="32" y="282" fill="#c9d1d9" font-size="13" font-weight="600">Shell commands</text>
    <text x="32" y="315" fill="#8b949e" font-size="11">7 commands -&gt; 2 commands</text>
    <rect x="200" y="290" width="338" height="22" rx="6" fill="#21262d"/>
    <rect x="200" y="290" width="240" height="22" rx="6" fill="#d2a8ff"/>
    <text x="548" y="306" fill="#d2a8ff" font-size="14" font-weight="700">71%</text>
    <line x1="32" y1="332" x2="588" y2="332" stroke="#30363d"/>
    <text x="32" y="354" fill="#8b949e" font-size="10">Reproducible synthetic benchmark generated by scripts/powershell/benchmark.ps1.</text>
    <text x="32" y="370" fill="#8b949e" font-size="10">Results vary by repository size and agent behavior.</text>
  </g>
</svg>
